<svg xmlns="http://www.w3.org/2000/svg" viewBox="0 0 64 64">
  <defs>
    <linearGradient id="g" x1="0" y1="0" x2="1" y2="1">
      <stop offset="0%" stop-color="#2563eb"/>
      <stop offset="100%" stop-color="#06b6d4"/>
    </linearGradient>
  </defs>
  <rect x="4" y="4" width="56" height="56" rx="10" fill="url(#g)"/>
  <g fill="#fff">
    <rect x="18" y="18" width="28" height="28" rx="6" opacity="0.2"/>
    <circle cx="32" cy="32" r="14" opacity="0.15"/>
    <path d="M32 18a2 2 0 0 1 2 2v4a2 2 0 1 1-4 0v-4a2 2 0 0 1 2-2zm0 20a2 2 0 0 1 2 2v4a2 2 0 1 1-4 0v-4a2 2 0 0 1 2-2zm-14-6a2 2 0 0 1 2-2h4a2 2 0 1 1 0 4h-4a2 2 0 0 1-2-2zm20 0a2 2 0 0 1 2-2h4a2 2 0 1 1 0 4h-4a2 2 0 0 1-2-2zm-9.657-9.657a2 2 0 0 1 2.829 0l2.828 2.829a2 2 0 1 1-2.828 2.828l-2.829-2.828a2 2 0 0 1 0-2.829zm0 19.314a2 2 0 0 1 2.829 0l2.828 2.829a2 2 0 1 1-2.828 2.828l-2.829-2.828a2 2 0 0 1 0-2.829zm-7.071-9.657a2 2 0 0 1 2.828-2.828l2.829 2.828a2 2 0 1 1-2.829 2.829l-2.828-2.829zm19.314 0a2 2 0 0 1 2.828-2.828l2.829 2.828a2 2 0 1 1-2.829 2.829l-2.828-2.829z"/>
  </g>
</svg>

